<?xml version="1.0" standalone="no"?>
<!DOCTYPE svg PUBLIC "-//W3C//DTD SVG 20010904//EN"
 "http://www.w3.org/TR/2001/REC-SVG-20010904/DTD/svg10.dtd">
<svg version="1.0" xmlns="http://www.w3.org/2000/svg"
 width="626.000000pt" height="626.000000pt" viewBox="0 0 626.000000 626.000000"
 preserveAspectRatio="xMidYMid meet">
<metadata>
Created by potrace 1.14, written by Peter Selinger 2001-2017
</metadata>
<g transform="translate(0.000000,626.000000) scale(0.100000,-0.100000)"
fill="#000000" stroke="none">
<path d="M3590 5273 c-25 -31 -61 -75 -80 -99 -19 -23 -51 -61 -70 -84 -77
-94 -74 -92 -96 -71 -19 18 -39 41 -134 161 -28 36 -56 67 -61 68 -5 2 -9 9
-9 16 0 6 -9 19 -20 28 -18 16 -21 15 -52 -25 -39 -50 -41 -53 -114 -142 -31
-38 -67 -82 -80 -97 -25 -29 -49 -29 -59 0 -3 10 -17 31 -33 47 -15 17 -67 78
-116 138 -49 59 -91 107 -93 107 -5 0 2 -121 11 -195 8 -68 17 -148 21 -195 7
-72 16 -154 19 -172 6 -26 -26 -9 -60 32 -86 103 -268 266 -379 338 -110 71
-246 91 -285 43 -3 -4 -17 -14 -31 -23 -57 -36 -140 -268 -155 -428 -12 -135
-6 -340 11 -410 9 -36 18 -78 21 -95 4 -27 12 -61 20 -90 2 -5 5 -21 8 -35 3
-14 8 -38 12 -54 3 -16 17 -52 30 -80 34 -74 33 -76 -36 -76 l-60 0 0 -105 c0
-63 4 -105 10 -105 6 0 10 -5 10 -12 0 -6 26 -38 57 -71 34 -36 53 -62 45 -65
-6 -2 -12 -9 -12 -17 0 -7 -20 -29 -45 -49 -25 -21 -45 -46 -45 -56 0 -11 25
-45 55 -77 30 -32 55 -61 55 -65 0 -9 -55 -48 -68 -48 -6 0 -10 -17 -9 -37 2
-27 11 -47 32 -69 53 -55 105 -118 105 -126 0 -4 4 -8 9 -8 5 0 40 -30 79 -68
39 -37 89 -78 111 -92 22 -14 43 -31 45 -38 3 -7 -16 -34 -42 -61 -80 -82
-101 -113 -173 -256 -74 -147 -97 -249 -93 -413 1 -53 5 -116 8 -140 7 -45 4
-49 -47 -103 -28 -29 -51 -37 -62 -20 -3 6 -13 9 -23 9 -9 0 -33 3 -52 7 -52
11 -70 9 -139 -20 -78 -32 -134 -144 -127 -250 6 -86 101 -335 129 -335 4 0 7
-4 7 -10 0 -12 68 -78 102 -98 16 -9 28 -20 28 -25 0 -4 5 -5 10 -2 6 3 10 2
10 -3 0 -11 99 -56 150 -67 96 -21 207 -23 1323 -23 690 0 1210 4 1213 9 3 5
9 7 14 4 9 -5 98 25 134 46 14 8 16 8 10 -3 -4 -7 2 -5 13 4 11 10 23 18 27
18 22 0 176 136 176 156 0 6 11 24 25 40 13 15 27 41 30 56 4 16 13 42 22 59
8 16 16 35 17 42 1 7 4 17 8 22 3 6 9 30 13 55 15 86 0 179 -39 235 -30 44
-38 51 -89 74 -52 24 -57 36 -27 74 11 14 20 30 20 35 0 6 4 12 8 14 17 7 50
65 67 118 24 72 30 271 10 310 -8 15 -12 30 -9 33 8 8 -24 128 -41 153 -14 21
-33 84 -40 132 -2 15 -6 36 -8 47 -9 37 -20 150 -22 210 -3 119 39 310 75 335
3 3 14 19 24 35 25 42 97 97 152 116 87 31 172 -8 219 -100 82 -160 143 -195
290 -170 95 16 130 35 201 107 20 21 51 93 61 142 5 25 4 103 -1 130 -10 47
-57 129 -89 156 -18 15 -41 40 -53 55 -49 67 -206 151 -317 170 -107 18 -270
6 -365 -27 -43 -14 -84 -32 -93 -40 -8 -8 -19 -14 -23 -14 -30 0 -279 -212
-275 -235 6 -39 -59 -14 -91 34 -32 48 -33 60 -4 67 13 3 24 9 24 13 0 4 15
25 34 46 57 63 54 88 -16 135 -36 24 -36 25 -21 53 19 37 74 202 80 242 3 17
8 35 13 40 4 6 11 30 15 55 4 25 9 56 11 70 18 95 26 355 12 425 -5 28 -11 66
-14 85 -2 19 -6 46 -9 60 -3 14 -7 35 -9 47 -8 41 -57 168 -81 209 -34 58 -77
102 -109 110 -14 3 -28 10 -31 14 -5 8 -54 6 -115 -5 -129 -23 -324 -182 -575
-470 l-27 -30 7 95 c4 52 9 104 11 115 2 11 7 45 10 75 3 30 7 71 9 90 10 75
18 190 14 190 -2 0 -24 -26 -49 -57z m744 -2401 c4 -40 10 -83 15 -95 4 -12 7
-34 6 -49 0 -16 2 -28 6 -28 6 0 18 -39 26 -90 2 -14 7 -34 12 -45 5 -11 19
-47 32 -80 12 -33 27 -66 32 -72 5 -7 7 -13 3 -13 -4 0 1 -14 9 -31 17 -32 24
-65 30 -139 5 -68 -50 -200 -76 -184 -5 3 -9 35 -10 72 0 96 -12 152 -53 267
-39 111 -77 181 -123 230 -7 8 -13 17 -13 22 0 5 -29 38 -65 73 -36 35 -65 72
-65 82 0 10 3 17 8 16 9 -3 102 53 124 75 19 19 90 68 93 65 2 -2 6 -36 9 -76z"/>
</g>
</svg>
